<?xml version="1.0" standalone="no"?>
<!DOCTYPE svg PUBLIC "-//W3C//DTD SVG 20010904//EN"
 "http://www.w3.org/TR/2001/REC-SVG-20010904/DTD/svg10.dtd">
<svg version="1.0" xmlns="http://www.w3.org/2000/svg"
 width="500.000000pt" height="500.000000pt" viewBox="0 0 500.000000 500.000000"
 preserveAspectRatio="xMidYMid meet">

<g transform="translate(0.000000,500.000000) scale(0.100000,-0.100000)"
fill="#000000" stroke="none">
<path d="M2192 3523 c-12 -10 -22 -25 -23 -33 -7 -61 20 -89 92 -94 l44 -3 0
-97 0 -98 -65 -22 c-94 -33 -149 -64 -227 -125 -97 -77 -167 -162 -217 -266
-69 -141 -69 -135 8 -135 l65 0 30 60 c45 90 83 141 156 208 205 188 507 226
758 95 107 -56 223 -175 273 -281 l39 -81 67 -1 67 0 -14 39 c-87 248 -276
424 -543 507 -9 3 -12 28 -10 100 l3 96 50 3 c36 2 54 9 67 25 22 27 23 68 2
98 -14 20 -23 22 -115 22 l-101 0 7 -29 c7 -31 -14 -91 -39 -117 -27 -26 -83
-44 -118 -37 -72 13 -118 70 -118 143 l0 40 -59 0 c-41 0 -65 -5 -79 -17z"/>
<path d="M2356 3008 c-48 -10 -92 -41 -111 -77 -12 -23 -22 -29 -61 -34 -25
-2 -58 -13 -73 -24 -35 -26 -71 -99 -71 -144 0 -30 -4 -38 -24 -43 -39 -10
-93 -78 -105 -134 -13 -64 1 -150 35 -208 23 -41 23 -43 8 -88 -29 -84 5 -160
92 -207 27 -14 51 -34 52 -45 6 -30 52 -73 90 -83 18 -6 56 -7 82 -4 45 5 51
3 73 -23 l25 -29 132 0 132 0 24 28 c21 24 31 28 67 27 85 -5 106 0 141 30 18
17 37 41 40 55 4 16 19 30 39 39 48 19 95 71 107 117 9 32 8 52 -5 95 -15 52
-15 56 3 82 81 117 52 290 -58 347 -22 11 -29 23 -34 62 -12 89 -58 139 -140
151 -36 6 -49 14 -68 41 -49 73 -158 95 -218 45 l-31 -27 -23 22 c-31 29 -73
39 -120 29z m321 -74 c32 -20 38 -65 14 -111 -35 -70 17 -90 54 -20 16 29 26
37 48 37 75 0 122 -66 93 -133 -8 -20 -26 -43 -41 -53 -17 -11 -25 -24 -23
-38 5 -32 32 -30 71 4 35 30 37 31 66 16 39 -21 69 -60 77 -103 7 -40 -10
-131 -30 -159 -13 -17 -14 -17 -31 0 -10 9 -22 15 -29 13 -21 -7 -17 -36 9
-74 51 -75 53 -167 5 -193 -30 -16 -37 -12 -38 26 -2 53 -11 74 -32 74 -24 0
-29 -15 -23 -70 11 -94 -38 -180 -101 -180 -61 0 -75 9 -69 43 6 43 -12 87
-36 87 -16 0 -19 -9 -23 -69 -4 -83 -23 -111 -75 -111 l-33 0 0 150 c0 167 -5
155 81 185 38 14 40 13 73 -15 21 -19 36 -43 40 -64 7 -35 20 -47 44 -38 19 7
14 63 -8 100 -24 40 -25 52 -3 52 29 0 103 41 120 66 20 30 35 101 28 125 -4
12 -16 19 -31 19 -20 0 -24 -5 -24 -30 0 -71 -55 -120 -150 -135 -44 -7 -118
-26 -152 -40 -16 -6 -18 -1 -18 47 0 40 5 59 18 70 32 29 101 58 136 58 47 0
66 9 66 30 0 22 -19 30 -71 30 -21 0 -39 5 -39 10 0 6 20 30 45 54 46 44 53
76 15 76 -30 0 -98 -75 -111 -122 -11 -40 -32 -68 -51 -68 -4 0 -8 48 -8 106
0 121 12 158 68 204 52 43 21 86 -34 45 -10 -8 -23 -15 -28 -15 -12 0 1 90 16
108 27 32 78 35 125 6z m-245 -1 c19 -23 40 -82 32 -94 -3 -5 -18 -2 -34 7
-34 21 -60 13 -60 -19 0 -14 10 -29 29 -40 45 -27 60 -70 64 -190 2 -73 -1
-107 -8 -107 -18 0 -35 22 -35 44 0 50 -80 139 -119 134 -40 -5 -37 -33 8 -76
23 -21 41 -44 41 -49 0 -6 -19 -11 -41 -11 -23 -1 -46 -5 -51 -10 -16 -16 -5
-47 17 -49 73 -10 124 -27 153 -51 27 -22 33 -35 35 -72 1 -25 -2 -45 -8 -45
-15 1 -165 35 -203 47 -53 16 -92 55 -92 92 0 18 -6 41 -14 52 -32 42 -69 -25
-52 -92 10 -37 64 -92 104 -105 53 -17 56 -22 33 -65 -22 -40 -25 -61 -15 -88
13 -33 64 -11 64 26 0 24 28 66 52 79 13 7 34 6 73 -6 l54 -15 3 -143 c2 -78
-1 -148 -6 -154 -5 -7 -19 -13 -32 -13 -36 0 -58 42 -59 113 0 45 -4 62 -17
70 -29 19 -48 -8 -48 -70 l0 -54 -56 3 c-81 4 -98 29 -102 148 -3 75 -7 89
-22 93 -30 8 -43 -9 -48 -62 -2 -28 -8 -51 -13 -51 -4 0 -17 12 -28 26 -33 42
-28 98 15 168 19 32 33 65 30 72 -7 17 -38 18 -54 2 -15 -15 -26 -4 -41 41
-28 84 -5 175 53 206 33 18 33 18 69 -9 39 -30 80 -32 85 -4 2 10 -14 34 -37
56 -31 30 -41 46 -41 71 0 45 16 70 55 87 53 22 68 18 88 -26 14 -31 24 -40
43 -40 32 0 39 21 20 59 -23 44 -20 78 10 106 32 30 84 33 106 8z"/>
<path d="M1524 2495 c-44 -19 -101 -80 -114 -121 -7 -20 -10 -65 -8 -100 5
-81 41 -137 112 -173 45 -23 59 -25 157 -23 122 3 116 6 172 -83 114 -179 318
-310 540 -345 292 -47 618 97 777 344 59 92 48 86 173 84 90 -1 119 2 147 16
83 43 122 108 123 202 1 75 -33 141 -95 182 -40 26 -47 27 -193 30 l-152 3 -5
-108 c-4 -88 -11 -123 -37 -192 -82 -222 -261 -381 -481 -427 -155 -33 -342
-2 -478 78 -187 110 -322 349 -322 570 l0 78 -142 -1 c-97 0 -153 -5 -174 -14z
m197 -195 c9 -47 15 -87 14 -90 -2 -3 -40 -5 -85 -5 -74 0 -84 2 -101 24 -64
79 -8 164 106 159 l49 -3 17 -85z m1693 80 c67 -25 87 -94 42 -147 -23 -27
-28 -28 -108 -27 -64 1 -83 5 -81 15 3 29 25 144 28 157 5 14 82 16 119 2z"/>
<path d="M970 1235 l0 -185 40 0 40 0 0 65 0 65 65 0 65 0 0 35 0 35 -65 0
-65 0 0 45 0 45 75 0 75 0 0 40 0 40 -115 0 -115 0 0 -185z"/>
<path d="M1277 1414 c-4 -4 -7 -88 -7 -186 l0 -178 120 0 120 0 0 41 0 41 -80
-4 -80 -3 -2 144 -3 145 -31 3 c-16 2 -33 1 -37 -3z"/>
<path d="M1649 1400 c-134 -71 -128 -278 10 -336 50 -21 129 -20 175 1 47 22
92 83 101 134 14 83 -36 175 -112 207 -46 20 -131 17 -174 -6z m162 -73 c38
-23 54 -111 29 -157 -22 -42 -91 -61 -144 -40 -32 12 -66 65 -66 103 0 90 102
143 181 94z"/>
<path d="M2003 1404 c-3 -8 -4 -68 -1 -132 7 -169 34 -213 137 -220 79 -6 123
16 151 73 18 37 20 58 18 166 l-3 124 -35 0 -35 0 -5 -126 c-4 -106 -8 -130
-24 -148 -24 -26 -66 -27 -97 -2 -23 18 -24 27 -28 150 l-3 131 -34 0 c-22 0
-37 -6 -41 -16z"/>
<path d="M2434 1404 c-35 -17 -54 -50 -54 -95 0 -41 45 -84 101 -98 88 -22
123 -59 83 -88 -30 -22 -72 -16 -100 14 -14 15 -39 29 -55 31 -25 3 -29 0 -29
-20 0 -58 60 -98 145 -98 89 0 135 38 135 111 0 38 -46 84 -93 94 -71 16 -107
36 -107 61 0 46 67 59 104 19 29 -31 86 -36 86 -7 0 25 -27 60 -60 77 -37 19
-116 19 -156 -1z"/>
<path d="M2780 1409 c-38 -15 -60 -49 -60 -96 0 -34 5 -46 30 -67 28 -23 86
-46 118 -46 14 0 52 -36 52 -49 0 -19 -32 -41 -61 -41 -20 0 -39 10 -57 28
-27 28 -76 41 -87 22 -3 -5 1 -25 10 -43 20 -43 70 -67 138 -67 83 0 137 44
137 112 0 36 -61 86 -129 104 -63 18 -86 39 -75 68 14 35 102 32 111 -4 4 -16
14 -20 44 -20 43 0 46 7 23 51 -26 51 -125 75 -194 48z"/>
</g>
</svg>
